<svg width="28" height="15" viewBox="0 0 28 15" fill="none" xmlns="http://www.w3.org/2000/svg">
<path d="M0.42 -9.53674e-07H6.4C8.25333 -9.53674e-07 9.64 0.253332 10.56 0.759999C11.4933 1.25333 11.96 2.09333 11.96 3.28C11.96 5.10667 10.86 6.2 8.66 6.56V6.6C11.3267 6.93333 12.66 8.09333 12.66 10.08C12.66 11.5333 12.1133 12.5533 11.02 13.14C9.92667 13.7133 8.35333 14 6.3 14H0.42V13.62H1.72V0.379999H0.42V-9.53674e-07ZM5.62 6.92V13.62H6.56C7.29333 13.62 7.80667 13.3667 8.1 12.86C8.39333 12.3533 8.54 11.6067 8.54 10.62V9.56C8.54 8.68 8.36 8.02 8 7.58C7.64 7.14 7 6.92 6.08 6.92H5.62ZM5.62 0.379999V6.54H6.14C6.83333 6.54 7.31333 6.33333 7.58 5.92C7.86 5.49333 8 4.84667 8 3.98V3.04C8 2.05333 7.88 1.36667 7.64 0.98C7.4 0.579999 6.94 0.379999 6.26 0.379999H5.62ZM19.7436 6.92H18.6836V13.62H19.9836V14H13.4836V13.62H14.7836V0.379999H13.4836V-9.53674e-07H19.5236C21.2569 -9.53674e-07 22.4836 0.0933324 23.2036 0.279999C23.9369 0.453333 24.4503 0.666666 24.7436 0.919999C25.3836 1.44 25.7036 2.26667 25.7036 3.4C25.7036 4.53333 25.4236 5.34667 24.8636 5.84C24.3036 6.32 23.4503 6.60667 22.3036 6.7V6.76C23.3836 6.90667 24.1369 7.22667 24.5636 7.72C24.9903 8.21333 25.2036 9.04 25.2036 10.2V11.26C25.2036 11.9533 25.2369 12.42 25.3036 12.66C25.3836 12.9 25.5436 13.02 25.7836 13.02C26.0236 13.02 26.2103 12.9133 26.3436 12.7C26.4903 12.4733 26.6236 12.0067 26.7436 11.3L27.0836 11.34C26.9369 12.4733 26.6769 13.2333 26.3036 13.62C25.9436 14.0067 25.2169 14.2 24.1236 14.2C23.0303 14.2 22.2503 13.9467 21.7836 13.44C21.3303 12.92 21.1036 11.9533 21.1036 10.54V9.08C21.1036 8.33333 21.0036 7.78667 20.8036 7.44C20.6169 7.09333 20.2636 6.92 19.7436 6.92ZM18.6836 0.379999V6.54H19.3236C20.0836 6.54 20.6436 6.30667 21.0036 5.84C21.3769 5.37333 21.5636 4.61333 21.5636 3.56V2.98C21.5636 1.92667 21.3836 1.23333 21.0236 0.899999C20.6769 0.553332 20.1169 0.379999 19.3436 0.379999H18.6836Z" fill="#242A37"/>
</svg>
