<svg width="25" height="20" viewBox="0 0 25 20" fill="none" xmlns="http://www.w3.org/2000/svg">
  <path
    d="M22.185 0.904996L22.806 1.871C18.528 4.677 16.389 7.483 16.389 10.289C16.389 11.715 17.01 12.543 18.252 12.773L21.15 10.082C22.07 10.404 22.898 11.002 23.634 11.876C24.416 12.704 24.807 13.785 24.807 15.119C24.807 16.453 24.278 17.603 23.22 18.569C22.162 19.489 20.759 19.949 19.011 19.949C17.309 19.949 15.883 19.374 14.733 18.224C13.629 17.028 13.077 15.395 13.077 13.325C13.077 8.817 16.113 4.677 22.185 0.904996ZM9.213 0.904996L9.834 1.871C5.556 4.677 3.417 7.483 3.417 10.289C3.417 11.715 4.038 12.543 5.28 12.773L8.178 10.082C9.098 10.404 9.926 11.002 10.662 11.876C11.444 12.704 11.835 13.785 11.835 15.119C11.835 16.453 11.306 17.603 10.248 18.569C9.19 19.489 7.787 19.949 6.039 19.949C4.337 19.949 2.911 19.374 1.761 18.224C0.657 17.028 0.105 15.395 0.105 13.325C0.105 8.817 3.141 4.677 9.213 0.904996Z"
    fill="#FF6B08" />
</svg>