<svg width="33" height="33" viewBox="0 0 33 33" fill="none" xmlns="http://www.w3.org/2000/svg">
  <circle cx="16.5" cy="16.5" r="16.5" fill="current" />
  <path
    d="M25 8.5C23.89 8.15 22.67 8 21.5 8C19.55 8 17.45 8.4 16 9.5C14.55 8.4 12.45 8 10.5 8C8.55 8 6.45 8.4 5 9.5V24.15C5 24.4 5.25 24.65 5.5 24.65C5.6 24.65 5.65 24.6 5.75 24.6C7.1 23.95 9.05 23.5 10.5 23.5C12.45 23.5 14.55 23.9 16 25C17.35 24.15 19.8 23.5 21.5 23.5C23.15 23.5 24.85 23.8 26.25 24.55C26.35 24.6 26.4 24.6 26.5 24.6C26.75 24.6 27 24.35 27 24.1V9.5C26.4 9.05 25.75 8.75 25 8.5ZM25 22C23.9 21.65 22.7 21.5 21.5 21.5C19.8 21.5 17.35 22.15 16 23V11.5C17.35 10.65 19.8 10 21.5 10C22.7 10 23.9 10.15 25 10.5V22Z"
    fill="#A6ABB9" />
  <path
    d="M21.5 14C22.38 14 23.23 14.09 24 14.26V12.74C23.21 12.59 22.36 12.5 21.5 12.5C19.8 12.5 18.26 12.79 17 13.33V14.99C18.13 14.35 19.7 14 21.5 14Z"
    fill="#A6ABB9" />
  <path
    d="M17 15.99V17.65C18.13 17.01 19.7 16.66 21.5 16.66C22.38 16.66 23.23 16.75 24 16.92V15.4C23.21 15.25 22.36 15.16 21.5 15.16C19.8 15.16 18.26 15.46 17 15.99Z"
    fill="#A6ABB9" />
  <path
    d="M21.5 17.83C19.8 17.83 18.26 18.12 17 18.66V20.32C18.13 19.68 19.7 19.33 21.5 19.33C22.38 19.33 23.23 19.42 24 19.59V18.07C23.21 17.91 22.36 17.83 21.5 17.83Z"
    fill="#A6ABB9" />
</svg>